<svg width="40" height="39" viewBox="0 0 40 39" fill="none" xmlns="http://www.w3.org/2000/svg">
<path fill-rule="evenodd" clip-rule="evenodd" d="M19.9423 0.619995C9.2576 0.619995 0.620056 9.24124 0.620056 19.9069C0.620056 28.4325 6.15443 35.6493 13.8321 38.2035C14.792 38.3956 15.1436 37.7886 15.1436 37.2779C15.1436 36.8308 15.1119 35.2982 15.1119 33.7013C9.73696 34.8511 8.61767 31.4022 8.61767 31.4022C7.75387 29.1669 6.474 28.5924 6.474 28.5924C4.71477 27.4109 6.60215 27.4109 6.60215 27.4109C8.5536 27.5387 9.57757 29.3907 9.57757 29.3907C11.3048 32.3282 14.088 31.4982 15.2077 30.9872C15.3674 29.7418 15.8796 28.8797 16.4235 28.4008C12.1365 27.9537 7.62612 26.2933 7.62612 18.8849C7.62612 16.7774 8.39341 15.0531 9.60921 13.7121C9.41739 13.2333 8.74542 11.2531 9.80143 8.60288C9.80143 8.60288 11.4329 8.09188 15.1116 10.5826C16.6865 10.1605 18.3107 9.94568 19.9423 9.94388C21.5738 9.94388 23.2369 10.1676 24.7727 10.5826C28.4517 8.09188 30.0832 8.60288 30.0832 8.60288C31.1392 11.2531 30.4668 13.2333 30.275 13.7121C31.5229 15.0531 32.2585 16.7774 32.2585 18.8849C32.2585 26.2933 27.7481 27.9215 23.4291 28.4008C24.1331 29.0074 24.7406 30.1568 24.7406 31.977C24.7406 34.5634 24.709 36.6392 24.709 37.2775C24.709 37.7886 25.061 38.3956 26.0205 38.2039C33.6982 35.6489 39.2325 28.4325 39.2325 19.9069C39.2642 9.24124 30.595 0.619995 19.9423 0.619995Z" fill="#24292F"/>
</svg>
