<svg width="38" height="30" viewBox="0 0 38 30" fill="none" xmlns="http://www.w3.org/2000/svg">
<g clip-path="url(#clip0_36_51)">
<path d="M33.4081 7.63213C33.4302 7.94742 33.4302 8.26271 33.4302 8.5809C33.4302 18.2764 25.9577 29.4582 12.2939 29.4582V29.4524C8.25753 29.4582 4.30504 28.3162 0.907104 26.1629C1.49402 26.2327 2.08388 26.2676 2.67521 26.269C6.02019 26.2719 9.26956 25.1633 11.9011 23.1219C8.72236 23.0624 5.93487 21.0152 4.96109 18.0265C6.07461 18.2386 7.22197 18.195 8.3149 17.9001C4.8493 17.2085 2.35601 14.2009 2.35601 10.708C2.35601 10.676 2.35601 10.6455 2.35601 10.615C3.38863 11.1831 4.54481 11.4984 5.72747 11.5333C2.46339 9.37856 1.45725 5.08948 3.42834 1.73609C7.1999 6.32012 12.7646 9.10686 18.7382 9.40181C18.1395 6.85335 18.9574 4.18285 20.8873 2.39137C23.8792 -0.386655 28.5848 -0.244266 31.3973 2.70956C33.061 2.38556 34.6555 1.78259 36.1147 0.928257C35.5602 2.62675 34.3996 4.06952 32.8492 4.98632C34.3216 4.81488 35.7602 4.42549 37.115 3.83123C36.1177 5.30742 34.8615 6.59328 33.4081 7.63213Z" fill="white"/>
</g>
<defs>
<clipPath id="clip0_36_51">
<rect width="36.48" height="29.64" fill="white" transform="translate(0.76001 0.179993)"/>
</clipPath>
</defs>
</svg>
